<svg xmlns="http://www.w3.org/2000/svg" width="24" height="24" viewBox="0,0,256,256">
<g fill="none" fill-rule="nonzero" stroke="none" stroke-width="1" stroke-linecap="butt" stroke-linejoin="miter" stroke-miterlimit="10" stroke-dasharray="" stroke-dashoffset="0" font-family="none" font-weight="none" font-size="none" text-anchor="none" style="mix-blend-mode: normal">
<g transform="scale(5.33333,5.33333)">
<path d="M16.458,2.987c-0.212,0.007 -0.441,0.086 -0.701,0.29c-0.635,-0.245 -1.251,-0.33 -1.802,0.168c-0.852,-0.109 -1.128,0.118 -1.337,0.383c-0.187,-0.002 -1.397,-0.191 -1.953,0.638c-1.395,-0.166 -1.836,0.821 -1.336,1.739c-0.285,0.441 -0.58,0.877 0.086,1.719c-0.236,0.47 -0.09,0.976 0.465,1.592c-0.146,0.659 0.142,1.123 0.659,1.486c-0.097,0.9 0.826,1.424 1.102,1.61c0.106,0.526 0.326,1.021 1.38,1.295c0.174,0.784 0.808,0.917 1.421,1.083c-2.028,1.178 -3.768,2.729 -3.755,6.535l-0.297,0.529c-2.326,1.414 -4.418,5.96 -1.146,9.655c0.214,1.156 0.572,1.986 0.891,2.905c0.478,3.705 3.593,5.44 4.414,5.646c1.205,0.916 2.487,1.787 4.222,2.396c1.636,1.688 3.408,2.331 5.19,2.329c0.026,0 0.053,0.001 0.079,0c1.781,0.002 3.554,-0.642 5.189,-2.329c1.735,-0.608 3.018,-1.479 4.223,-2.396c0.821,-0.206 3.937,-1.941 4.413,-5.646c0.319,-0.919 0.678,-1.749 0.892,-2.905c3.271,-3.695 1.18,-8.241 -1.146,-9.655l-0.297,-0.53c0.012,-3.805 -1.729,-5.356 -3.756,-6.534c0.613,-0.166 1.247,-0.3 1.421,-1.084c1.055,-0.272 1.275,-0.769 1.381,-1.295c0.276,-0.186 1.198,-0.709 1.103,-1.611c0.517,-0.361 0.805,-0.826 0.657,-1.484c0.557,-0.615 0.702,-1.124 0.466,-1.592c0.667,-0.842 0.371,-1.277 0.087,-1.719c0.499,-0.918 0.059,-1.905 -1.337,-1.739c-0.555,-0.829 -1.766,-0.64 -1.953,-0.638c-0.209,-0.265 -0.486,-0.492 -1.337,-0.383c-0.551,-0.498 -1.167,-0.413 -1.802,-0.168c-0.756,-0.596 -1.256,-0.119 -1.826,0.062c-0.912,-0.298 -1.122,0.111 -1.57,0.277c-0.997,-0.211 -1.299,0.247 -1.777,0.731l-0.556,-0.011c-1.503,0.886 -2.249,2.69 -2.514,3.616c-0.264,-0.928 -1.009,-2.731 -2.512,-3.616l-0.556,0.011c-0.479,-0.484 -0.781,-0.942 -1.778,-0.731c-0.448,-0.166 -0.657,-0.575 -1.571,-0.277c-0.376,-0.119 -0.721,-0.364 -1.126,-0.352z" fill="#080808"></path>
<path d="M13.466,6.885c3.987,2.055 6.305,3.718 7.575,5.134c-0.65,2.607 -4.042,2.726 -5.283,2.653c0.254,-0.119 0.467,-0.26 0.541,-0.479c-0.311,-0.221 -1.415,-0.023 -2.186,-0.456c0.296,-0.062 0.435,-0.12 0.573,-0.339c-0.727,-0.232 -1.511,-0.433 -1.973,-0.817c0.249,0.003 0.481,0.055 0.806,-0.17c-0.652,-0.351 -1.348,-0.629 -1.888,-1.166c0.337,-0.009 0.701,-0.004 0.806,-0.129c-0.596,-0.37 -1.1,-0.78 -1.518,-1.23c0.472,0.058 0.671,0.009 0.786,-0.075c-0.452,-0.461 -1.023,-0.85 -1.294,-1.421c0.35,0.121 0.671,0.168 0.902,-0.011c-0.154,-0.345 -0.81,-0.55 -1.189,-1.357c0.369,0.036 0.761,0.081 0.839,0c-0.172,-0.697 -0.465,-1.089 -0.753,-1.496c0.79,-0.01 1.985,0.004 1.931,-0.063l-0.488,-0.499c0.771,-0.207 1.561,0.034 2.133,0.213c0.257,-0.203 -0.005,-0.459 -0.318,-0.721c0.655,0.087 1.247,0.238 1.782,0.445c0.286,-0.258 -0.186,-0.516 -0.413,-0.773c1.012,0.191 1.44,0.46 1.866,0.73c0.31,-0.295 0.018,-0.548 -0.19,-0.807c0.764,0.283 1.156,0.648 1.57,1.009c0.141,-0.19 0.357,-0.328 0.096,-0.784c0.542,0.312 0.95,0.68 1.252,1.092c0.335,-0.214 0.2,-0.506 0.201,-0.775c0.563,0.459 0.921,0.946 1.358,1.423c0.088,-0.064 0.165,-0.282 0.233,-0.626c1.344,1.303 3.242,4.586 0.488,5.889c-2.344,-1.936 -5.143,-3.341 -8.245,-4.394zM34.623,6.885c-3.986,2.055 -6.305,3.718 -7.574,5.134c0.65,2.607 4.043,2.726 5.283,2.653c-0.254,-0.119 -0.466,-0.26 -0.542,-0.479c0.312,-0.221 1.415,-0.023 2.186,-0.456c-0.296,-0.062 -0.434,-0.12 -0.573,-0.339c0.729,-0.232 1.514,-0.433 1.974,-0.817c-0.249,0.003 -0.481,0.055 -0.806,-0.17c0.652,-0.351 1.348,-0.629 1.889,-1.166c-0.338,-0.009 -0.701,-0.004 -0.807,-0.129c0.598,-0.37 1.1,-0.78 1.518,-1.23c-0.473,0.058 -0.671,0.009 -0.785,-0.075c0.451,-0.461 1.021,-0.85 1.293,-1.421c-0.35,0.121 -0.67,0.168 -0.9,-0.011c0.152,-0.345 0.811,-0.55 1.188,-1.357c-0.369,0.036 -0.76,0.081 -0.838,0c0.172,-0.697 0.465,-1.089 0.754,-1.496c-0.789,-0.012 -1.985,0.004 -1.932,-0.063l0.488,-0.499c-0.771,-0.207 -1.56,0.034 -2.133,0.213c-0.258,-0.203 0.005,-0.459 0.318,-0.721c-0.654,0.087 -1.248,0.237 -1.782,0.445c-0.286,-0.258 0.186,-0.516 0.414,-0.774c-1.013,0.191 -1.44,0.461 -1.867,0.731c-0.31,-0.295 -0.018,-0.548 0.19,-0.807c-0.763,0.283 -1.156,0.648 -1.57,1.008c-0.14,-0.189 -0.356,-0.327 -0.095,-0.783c-0.542,0.311 -0.951,0.68 -1.252,1.092c-0.335,-0.215 -0.2,-0.506 -0.202,-0.775c-0.563,0.459 -0.92,0.946 -1.358,1.423c-0.088,-0.064 -0.165,-0.282 -0.232,-0.626c-1.345,1.303 -3.243,4.586 -0.488,5.889c2.341,-1.937 5.139,-3.341 8.241,-4.394z" fill="#64dd17"></path>
<g fill="#fb0055">
<path d="M28.873,33.426c0.014,2.433 -2.113,4.414 -4.75,4.428c-2.638,0.012 -4.788,-1.948 -4.801,-4.381c0,-0.016 0,-0.031 0,-0.047c-0.014,-2.433 2.112,-4.414 4.75,-4.428c2.638,-0.012 4.787,1.948 4.801,4.382c0,0.015 0,0.031 0,0.046zM21.333,20.846c1.979,1.296 2.335,4.234 0.797,6.563c-1.539,2.329 -4.391,3.165 -6.37,1.868v0c-1.979,-1.297 -2.335,-4.235 -0.797,-6.563c1.539,-2.329 4.392,-3.165 6.37,-1.868zM26.676,20.61c-1.98,1.295 -2.337,4.235 -0.798,6.563c1.539,2.33 4.391,3.166 6.369,1.869v0c1.979,-1.297 2.337,-4.234 0.798,-6.564c-1.539,-2.328 -4.391,-3.164 -6.369,-1.868zM11.443,22.966c2.136,-0.573 0.721,8.838 -1.017,8.066c-1.912,-1.539 -2.528,-6.044 1.017,-8.066zM36.135,22.848c-2.138,-0.572 -0.722,8.839 1.016,8.066c1.913,-1.539 2.529,-6.043 -1.016,-8.066zM28.875,15.839c3.687,-0.624 6.756,1.567 6.632,5.565c-0.122,1.534 -7.991,-5.339 -6.632,-5.565zM18.687,15.72c-3.687,-0.621 -6.755,1.57 -6.631,5.567c0.121,1.534 7.989,-5.338 6.631,-5.567zM23.983,14.789c-2.2,-0.058 -4.313,1.634 -4.318,2.613c-0.006,1.19 1.741,2.412 4.333,2.442c2.648,0.019 4.337,-0.977 4.347,-2.205c0.009,-1.393 -2.408,-2.872 -4.362,-2.85zM24.118,39.221c1.919,-0.084 4.493,0.619 4.499,1.549c0.031,0.905 -2.336,2.947 -4.626,2.907c-2.373,0.103 -4.699,-1.943 -4.668,-2.651c-0.036,-1.042 2.889,-1.852 4.795,-1.805zM17.031,33.703c1.366,1.646 1.988,4.539 0.849,5.39c-1.079,0.652 -3.698,0.384 -5.56,-2.29c-1.255,-2.245 -1.094,-4.527 -0.212,-5.199c1.318,-0.803 3.355,0.28 4.923,2.099zM30.932,33.183c-1.479,1.731 -2.301,4.888 -1.223,5.905c1.03,0.791 3.799,0.681 5.842,-2.156c1.484,-1.906 0.988,-5.087 0.141,-5.934c-1.261,-0.972 -3.069,0.273 -4.76,2.185z"></path>
</g>
</g>
</g>
</svg>