<?xml version="1.0" encoding="UTF-8"?>
<svg version="1.1" xmlns="http://www.w3.org/2000/svg" width="512" height="512">
<path d="M0 0 C0.70235916 -0.00350607 1.40471831 -0.00701215 2.12836108 -0.01062447 C4.48765158 -0.01994653 6.84669569 -0.01501312 9.20599651 -0.01015663 C10.91227965 -0.01389249 12.61856107 -0.01849375 14.32483977 -0.02388728 C19.01836925 -0.03614069 23.71182757 -0.03585406 28.4053694 -0.03349853 C33.46547939 -0.03309095 38.52556638 -0.04412383 43.5856657 -0.05361366 C53.50114897 -0.07023743 63.41660845 -0.07572383 73.33210448 -0.07683842 C81.3906547 -0.07778823 89.44919706 -0.08189519 97.50774479 -0.08823967 C120.34741949 -0.10585576 143.18707538 -0.11507795 166.02675692 -0.11357872 C167.87428797 -0.11345885 167.87428797 -0.11345885 169.75914288 -0.11333656 C170.9923314 -0.1132548 172.22551992 -0.11317304 173.4960778 -0.1130888 C193.48488758 -0.11227578 213.47362202 -0.13141665 233.46241001 -0.1596133 C253.97911746 -0.18832663 274.49578815 -0.20215445 295.0125162 -0.20042574 C306.53417306 -0.19976131 318.05575094 -0.20527697 329.57738972 -0.22678185 C339.3867497 -0.24497322 349.19599492 -0.24935777 359.00536446 -0.235763 C364.01090429 -0.22922307 369.01622381 -0.22915316 374.02174282 -0.2464695 C378.60436107 -0.26215989 383.18658358 -0.25937791 387.76919194 -0.24190123 C389.42664532 -0.23882244 391.08412794 -0.24249677 392.74154685 -0.25362138 C402.26024629 -0.31327753 409.69688501 -0.33863588 417.18370342 6.22211266 C417.72253155 6.87308922 418.26135967 7.52406578 418.81651592 8.19476891 C419.3708128 8.84316734 419.92510967 9.49156578 420.49620342 10.15961266 C423.29198803 14.21727842 424.1914168 17.79920115 424.19878483 22.69154644 C424.20523372 23.77642072 424.21168261 24.861295 424.21832693 25.97904426 C424.21368112 27.75830347 424.21368112 27.75830347 424.20894146 29.57350731 C424.21347257 30.83803614 424.21800369 32.10256497 424.2226721 33.40541285 C424.23490594 36.91318535 424.2346412 40.42086249 424.23228335 43.92865145 C424.23187528 47.71267964 424.24291341 51.49667722 424.25239849 55.28069115 C424.26901162 62.69357499 424.27450818 70.10642702 424.27562325 77.51932792 C424.27657359 83.54507957 424.28068317 89.57082073 424.2870245 95.59656906 C424.30463787 112.68114215 424.31386323 129.7656901 424.31236355 146.85027234 C424.31228364 147.77131216 424.31220373 148.69235199 424.31212139 149.64130211 C424.31203963 150.5634667 424.31195787 151.48563129 424.31187363 152.43574025 C424.31106073 167.38067034 424.33019909 182.32549963 424.35839812 197.27040056 C424.38712503 212.61617308 424.40093852 227.96189643 424.39921057 243.30769652 C424.3985466 251.92301386 424.40404215 260.53822555 424.42556667 269.15351868 C424.44377595 276.48887908 424.44812794 283.82408594 424.43454783 291.15945915 C424.4280168 294.90125985 424.4279055 298.64276596 424.44525433 302.38453865 C424.46387902 306.44327534 424.45143416 310.50132969 424.43599224 314.56007957 C424.44627937 315.73956022 424.45656649 316.91904086 424.46716535 318.13426334 C424.40098188 325.99702976 423.30365346 331.4205553 417.97667217 337.49945641 C417.32569561 338.03828453 416.67471905 338.57711266 416.00401592 339.13226891 C415.35561749 339.68656578 414.70721905 340.24086266 414.03917217 340.81195641 C408.31373802 344.75685517 403.03086387 344.51771771 396.3024168 344.44153404 C394.67619636 344.43540576 394.67619636 344.43540576 393.01712298 344.42915368 C389.37755163 344.41335345 385.73822656 344.38345193 382.09874249 344.35394859 C379.49195658 344.34033019 376.88516486 344.32778817 374.27836895 344.31624413 C369.38872104 344.29407237 364.49911177 344.268511 359.60950229 344.23905751 C349.9986508 344.18163779 340.38790495 344.15382181 330.77690411 344.13721275 C329.26300406 344.13447167 327.74910402 344.1317269 326.23520398 344.12897849 C323.17031915 344.12350554 320.10543407 344.11819366 317.0405488 344.11297083 C309.16410869 344.09944978 301.28767334 344.08453095 293.41124249 344.06635094 C292.62092726 344.0645382 291.83061203 344.06272547 291.01634786 344.0608578 C278.21227026 344.03013073 265.40876641 343.9558113 252.60497501 343.86720619 C239.45246334 343.77737661 226.30054225 343.74097785 213.14772677 343.75233769 C205.03836298 343.75752956 196.93146242 343.72028212 188.82260939 343.62824079 C182.60472407 343.56197398 176.38889832 343.56934279 170.17080212 343.60394669 C167.62341885 343.60651989 165.07588076 343.58513438 162.52893353 343.53793335 C150.25979691 342.73281988 150.25979691 342.73281988 139.07692528 346.62440014 C136.54442561 349.38654502 134.92073306 352.30283127 133.45814419 355.73395729 C131.08839256 361.23917807 127.06820509 365.00750304 122.94151592 369.25726891 C122.2686253 370.00363609 121.59573467 370.75000328 120.90245342 371.51898766 C105.63192262 387.90478195 81.33547954 399.34736233 58.94420147 400.39789391 C44.15332735 400.81871684 30.05333797 401.03563903 15.94151592 396.25726891 C14.99695538 395.94378502 14.99695538 395.94378502 14.0333128 395.62396812 C-1.06483397 390.49781707 -13.78944412 382.48911731 -25.05848408 371.25726891 C-25.9169997 370.40390953 -26.77551533 369.55055016 -27.66004658 368.67133141 C-28.84727314 367.47637047 -28.84727314 367.47637047 -30.05848408 366.25726891 C-30.62051533 365.69265953 -31.18254658 365.12805016 -31.76160908 364.54633141 C-41.24339936 354.34622368 -47.80247899 341.42889915 -52.05848408 328.25726891 C-52.37390156 327.28708824 -52.37390156 327.28708824 -52.69569111 326.29730797 C-58.73302223 306.70824786 -58.38745223 283.72430199 -52.05848408 264.25726891 C-51.74500019 263.28708824 -51.74500019 263.28708824 -51.4251833 262.29730797 C-46.70389893 248.25723385 -39.31146209 235.94900084 -29.02723408 225.33148766 C-27.01507839 223.41327452 -27.01507839 223.41327452 -26.05848408 221.25726891 C-25.39848408 221.25726891 -24.73848408 221.25726891 -24.05848408 221.25726891 C-24.05848408 209.04726891 -24.05848408 196.83726891 -24.05848408 184.25726891 C-26.36848408 183.92726891 -28.67848408 183.59726891 -31.05848408 183.25726891 C-38.43971518 179.84418764 -43.59195849 174.19032008 -47.19129658 166.99164391 C-49.54885961 159.5578866 -49.3095379 149.80986986 -46.05848408 142.69476891 C-41.84280225 135.6209977 -35.8503287 130.80460272 -28.05848408 128.25726891 C-26.73848408 128.25726891 -25.41848408 128.25726891 -24.05848408 128.25726891 C-24.06217125 127.69257896 -24.06585842 127.12788902 -24.06965733 126.54608727 C-24.15813923 112.78210201 -24.22400146 99.01816684 -24.26573277 85.25395775 C-24.28659343 78.59754944 -24.3148838 71.94140127 -24.36024189 65.28510094 C-24.40375284 58.85954332 -24.42763266 52.4341832 -24.43799305 46.00848961 C-24.44537489 43.55891372 -24.45978988 41.10934845 -24.4814043 38.6598568 C-24.51050696 35.2246433 -24.51443706 31.79024241 -24.51258564 28.35492516 C-24.52696674 27.34575539 -24.54134785 26.33658562 -24.55616474 25.29683495 C-24.51340658 17.94865733 -22.98248007 12.59399594 -18.09364033 7.01508141 C-17.44266376 6.47625328 -16.7916872 5.93742516 -16.12098408 5.38226891 C-15.47258564 4.82797203 -14.8241872 4.27367516 -14.15614033 3.70258141 C-9.5246885 0.51145072 -5.571784 0.00627283 0 0 Z " fill="#F4F4F4" transform="translate(72.05848407745361,55.74273109436035)"/>
<path d="M0 0 C1.58554687 0.36544922 1.58554687 0.36544922 3.203125 0.73828125 C17.18752944 4.44520253 31.4544607 12.09306128 42 22 C42.50192871 22.46245117 43.00385742 22.92490234 43.52099609 23.40136719 C58.6326949 37.42437853 69.42397704 54.01925106 75 74 C75.2990625 75.01835937 75.598125 76.03671875 75.90625 77.0859375 C82.81896858 104.03273862 76.01562293 133.33251134 62.7109375 157.18359375 C48.16967991 181.1202301 24.68243337 195.95683112 -1.81640625 203.2734375 C-19.69461068 207.35361667 -40.58162122 206.89799535 -58 201 C-58.94456055 200.68651611 -58.94456055 200.68651611 -59.90820312 200.36669922 C-75.00634989 195.24054817 -87.73096004 187.23184841 -99 176 C-100.28777344 174.71996094 -100.28777344 174.71996094 -101.6015625 173.4140625 C-102.39304687 172.61742187 -103.18453125 171.82078125 -104 171 C-104.84304687 170.15308594 -104.84304687 170.15308594 -105.703125 169.2890625 C-115.18491528 159.08895477 -121.74399491 146.17163024 -126 133 C-126.31541748 132.02981934 -126.31541748 132.02981934 -126.63720703 131.04003906 C-132.67453815 111.45097895 -132.32896816 88.46703309 -126 69 C-125.68651611 68.02981934 -125.68651611 68.02981934 -125.36669922 67.04003906 C-120.64541485 52.99996494 -113.25297801 40.69173193 -102.96875 30.07421875 C-100.95659432 28.15600561 -100.95659432 28.15600561 -100 26 C-99.319375 25.608125 -98.63875 25.21625 -97.9375 24.8125 C-95.44321275 23.27347169 -93.72876719 21.85959955 -91.625 19.875 C-67.00923407 -1.96976039 -31.28337085 -7.82084271 0 0 Z " fill="#FABF2D" transform="translate(146,251)"/>
<path d="M0 0 C2.51796746 1.65865776 3.56469246 2.44220177 5 5 C5.75623497 9.23085044 5.66906686 13.42514842 5.62768555 17.71313477 C5.63495667 19.00466461 5.64222778 20.29619446 5.64971924 21.62686157 C5.66526383 24.43058454 5.66512576 27.23370955 5.65271568 30.03744698 C5.63315885 34.47078322 5.64838001 38.90358868 5.66816711 43.3368988 C5.6953025 50.34792834 5.69881044 57.35874123 5.69239408 64.36981291 C5.68144922 76.9284574 5.70604332 89.48703685 5.74614173 102.04561466 C5.75921714 106.45264716 5.76046938 110.85948136 5.7520088 115.26652348 C5.74925757 117.3469831 5.75089199 119.42738526 5.75439453 121.50784302 C5.7583557 124.04439762 5.75506735 126.58097781 5.74324036 129.11750793 C5.74717804 130.23486328 5.75111572 131.35221863 5.75517273 132.50343323 C5.75420939 133.4740397 5.75324606 134.44464617 5.75225353 135.44466496 C6.01374426 138.14176259 6.50863883 139.74809556 8 142 C10.53770003 143.28254644 10.53770003 143.28254644 13 144 C12.99111755 142.84821259 12.98223511 141.69642517 12.9730835 140.50973511 C12.89196962 129.6511444 12.83202101 118.79261523 12.79275131 107.93379021 C12.77188356 102.35123942 12.74358031 96.76893337 12.69824219 91.18652344 C12.65475612 85.79838788 12.63085678 80.41048761 12.62049103 75.02219009 C12.61310467 72.96728944 12.59868081 70.91240155 12.57707977 68.85760117 C12.54800944 65.97753906 12.54404556 63.09844712 12.54589844 60.21826172 C12.53151733 59.37021469 12.51713623 58.52216766 12.50231934 57.64842224 C12.53964893 52.28003703 13.4511131 49.26792419 17 45 C23.39762898 39.36399352 27.96067561 39.78721358 36.25 39.75 C37.38308594 39.729375 38.51617187 39.70875 39.68359375 39.6875 C46.39203386 39.6560419 51.50320928 39.73577493 56.64453125 44.53515625 C60.78195518 49.9456337 61.1414335 53.06961486 61.11352539 59.76416016 C61.11367142 60.67153427 61.11381744 61.57890839 61.1139679 62.51377869 C61.11326951 65.52223068 61.10548054 68.53062128 61.09765625 71.5390625 C61.09579181 73.62128668 61.09436803 75.70351131 61.09336853 77.78573608 C61.08954541 83.27336838 61.07971686 88.76097433 61.06866455 94.24859619 C61.05844602 99.84541467 61.05386996 105.44223739 61.04882812 111.0390625 C61.03809443 122.02605326 61.02102045 133.01302444 61 144 C63.64 144 66.28 144 69 144 C68.99631283 143.40254408 68.99262566 142.80508816 68.98882675 142.18952751 C68.9004303 127.64180016 68.83426833 113.09408869 68.79275131 98.54615593 C68.77213948 91.51081564 68.7440456 84.47565479 68.69824219 77.44042969 C68.65406531 70.65178857 68.63086585 63.86333406 68.62049103 57.07455826 C68.61309689 54.48377675 68.59865806 51.89300551 68.57707977 49.30230331 C68.54806831 45.6751063 68.54404323 42.04868098 68.54589844 38.42138672 C68.53151733 37.34892197 68.51713623 36.27645721 68.50231934 35.17149353 C68.53589159 29.1105032 68.94989657 25.60956658 73 21 C79.39762898 15.36399352 83.96067561 15.78721358 92.25 15.75 C93.38308594 15.729375 94.51617187 15.70875 95.68359375 15.6875 C102.39203386 15.6560419 107.50320928 15.73577493 112.64453125 20.53515625 C115.7506546 24.59700986 117.12568261 26.61244274 117.12025452 31.68228149 C117.12231651 33.16308952 117.12231651 33.16308952 117.12442017 34.67381287 C117.12082489 35.76065872 117.11722961 36.84750458 117.11352539 37.96728516 C117.11367142 39.10874496 117.11381744 40.25020477 117.1139679 41.42625427 C117.11326906 45.21387609 117.10547798 49.00144923 117.09765625 52.7890625 C117.09579197 55.40937269 117.09436811 58.02968323 117.09336853 60.6499939 C117.09025752 66.85127161 117.08204722 73.05253174 117.07201904 79.2538017 C117.06085078 86.31296163 117.05534565 93.37212239 117.05032361 100.43128896 C117.03986443 114.95420172 117.02226942 129.47710061 117 144 C119.64 144 122.28 144 125 144 C124.99111755 143.14888641 124.98223511 142.29777283 124.9730835 141.42086792 C124.89283231 133.38777809 124.8319822 125.3548235 124.79275131 117.32142448 C124.77190394 113.19164765 124.7436391 109.06220291 124.69824219 104.93261719 C124.65468167 100.94498571 124.63084145 96.95767304 124.62049103 92.96982193 C124.61311787 91.4507966 124.59871958 89.9317881 124.57707977 88.41289902 C124.54790825 86.27993239 124.54404946 84.14827173 124.54589844 82.01513672 C124.53701599 80.8026828 124.52813354 79.59022888 124.51898193 78.34103394 C125.26587222 73.15331653 127.76047128 70.09196578 131.625 66.6875 C136.84432376 62.97903312 142.01059585 63.77801079 148.25 63.75 C149.38308594 63.729375 150.51617187 63.70875 151.68359375 63.6875 C158.39203386 63.6560419 163.50320928 63.73577493 168.64453125 68.53515625 C172.35364253 73.38553254 173.1246104 75.46427981 173.11352539 81.56103516 C173.11367142 82.23432358 173.11381744 82.907612 173.1139679 83.6013031 C173.11327027 85.83058881 173.10548489 88.05979135 173.09765625 90.2890625 C173.09579154 91.83320063 173.09436789 93.37733934 173.09336853 94.92147827 C173.08954754 98.98870472 173.07972082 103.05589555 173.06866455 107.12310791 C173.05844144 111.2721712 173.05386898 115.42124025 173.04882812 119.5703125 C173.03809819 127.71355803 173.02102677 135.85677458 173 144 C174.24136719 143.96519531 175.48273438 143.93039062 176.76171875 143.89453125 C178.40363226 143.86638416 180.04556046 143.83908499 181.6875 143.8125 C182.50412109 143.78736328 183.32074219 143.76222656 184.16210938 143.73632812 C188.94015822 143.67829514 192.13423093 143.85096129 196 147 C197.40457737 149.80915474 197.24895157 151.88810534 197 155 C195.22015595 158.1359157 194.47691793 158.84102736 191 160 C188.55989491 160.10169986 186.14807089 160.14781216 183.7077179 160.14717102 C182.95942551 160.15084771 182.21113313 160.1545244 181.44016522 160.1583125 C178.9253539 160.16935142 176.41058389 160.17319354 173.89575195 160.17700195 C172.09550342 160.18326648 170.29525619 160.18991328 168.49501038 160.19691467 C162.57610984 160.21795989 156.65720902 160.22831794 150.73828125 160.23828125 C148.70064976 160.24232873 146.6630184 160.24644565 144.62538719 160.25063133 C135.05191144 160.26968453 125.47844341 160.28391492 115.90495235 160.2922433 C104.85522295 160.30201463 93.80569394 160.32833093 82.75603515 160.36874419 C74.21494194 160.3989101 65.67390615 160.41371266 57.1327607 160.41702431 C52.03181489 160.4193744 46.93108312 160.42832939 41.83019447 160.45348549 C37.02930766 160.47677924 32.22877561 160.48099416 27.42784691 160.47072411 C25.66866755 160.47022894 23.90947065 160.47654367 22.15034485 160.49028015 C4.2941512 160.62187803 4.2941512 160.62187803 -3.4609375 153.8515625 C-4.09257812 153.11679687 -4.72421875 152.38203125 -5.375 151.625 C-6.02210938 150.89539063 -6.66921875 150.16578125 -7.3359375 149.4140625 C-10.42098832 144.93856623 -11.24898264 140.51244902 -11.27415466 135.14903259 C-11.28412979 134.00368546 -11.29410492 132.85833832 -11.30438232 131.67828369 C-11.305047 130.43601013 -11.30571167 129.19373657 -11.30639648 127.91381836 C-11.31472 126.59448807 -11.32304352 125.27515778 -11.33161926 123.91584778 C-11.35349535 120.30853577 -11.36235303 116.70130847 -11.36744571 113.09393764 C-11.37109537 110.83884036 -11.37733838 108.58376508 -11.3844471 106.32867622 C-11.408911 98.45795852 -11.42198829 90.58730651 -11.42553711 82.71655273 C-11.42917709 75.38412077 -11.45911296 68.05210615 -11.50094169 60.71980184 C-11.53562871 54.41815411 -11.55108521 48.11664493 -11.55178314 41.81490237 C-11.55257607 38.05372797 -11.56132214 34.29297979 -11.58978081 30.53190422 C-11.62079485 26.33989779 -11.61190968 22.14888942 -11.59936523 17.95678711 C-11.61419952 16.71248932 -11.62903381 15.46819153 -11.64431763 14.18618774 C-11.5643671 4.83049125 -11.5643671 4.83049125 -8.65003967 1.72926331 C-5.35777214 -0.41908092 -3.85432815 -0.80298503 0 0 Z " fill="#212121" transform="translate(267,208)"/>
<path d="M0 0 C2.30738315 0.01682665 4.61479889 0.02961859 6.92222595 0.03858948 C12.9382817 0.07263418 18.9523208 0.16075937 24.96759033 0.26092529 C31.12850681 0.35368959 37.28975541 0.39424509 43.45117188 0.43945312 C55.49827245 0.53541152 67.54388915 0.68861991 79.58984375 0.87890625 C79.60293738 2.2940829 79.6121899 3.70929535 79.61987305 5.12451172 C79.62544724 5.91260223 79.63102142 6.70069275 79.63676453 7.51266479 C79.56607451 11.07760238 79.04279344 14.50228094 78.40234375 18.00390625 C78.20705078 19.09034424 78.20705078 19.09034424 78.0078125 20.19873047 C72.87772967 46.97426507 58.4642642 71.09813112 36.140625 86.99365234 C12.48722275 102.99193096 -16.33566867 108.72909503 -44.56640625 104.1953125 C-48.62462882 103.37243039 -52.4883272 102.20686735 -56.41015625 100.87890625 C-57.03986328 100.66991699 -57.66957031 100.46092773 -58.31835938 100.24560547 C-73.41650614 95.11945442 -86.14111629 87.11075466 -97.41015625 75.87890625 C-98.26609375 75.03070313 -99.12203125 74.1825 -100.00390625 73.30859375 C-106.3508622 66.8998168 -112.40341735 60.03736474 -116.41015625 51.87890625 C-115.06685137 47.8489916 -113.4937079 47.60755002 -109.7421875 45.7265625 C-109.15979813 45.43054138 -108.57740875 45.13452026 -107.97737122 44.82952881 C-106.72029998 44.19167744 -105.46100225 43.55819924 -104.19976807 42.92861938 C-100.85759243 41.25980144 -97.53154457 39.5593206 -94.203125 37.86328125 C-93.53422241 37.52355789 -92.86531982 37.18383453 -92.17614746 36.83381653 C-86.40201141 33.89476785 -80.70665764 30.82391545 -75.03515625 27.69140625 C-66.73546794 23.12082998 -58.37412193 18.68449066 -49.96142578 14.32543945 C-49.09243652 13.87515381 -48.22344727 13.42486816 -47.328125 12.9609375 C-46.44882324 12.51991196 -45.56952148 12.07888641 -44.66357422 11.62449646 C-42.31897122 10.36652221 -40.18064542 9.09629333 -37.97164917 7.64007568 C-25.55549044 -0.20284217 -14.36564919 -0.31138254 0 0 Z " fill="#F44336" transform="translate(144.41015625,351.12109375)"/>
<path d="M0 0 C9.05460147 4.68341456 14.06827195 10.89231584 17.25 20.4375 C18.40137976 29.75055907 16.46148683 36.66638911 11.25 44.4375 C6.43047394 50.1520809 -0.27075587 53.85143067 -7.67578125 54.8203125 C-13.90077102 55.05760563 -18.40642803 54.25025194 -23.8125 51.1171875 C-25.73224907 50.22907148 -25.73224907 50.22907148 -27.6328125 51.01171875 C-30.4794354 52.92872495 -33.04581996 55.12046108 -35.625 57.375 C-40.20009046 61.31599669 -44.84633563 65.12137502 -49.625 68.8125 C-57.25705994 74.72496414 -64.50782255 81.05748654 -71.75 87.4375 C-71.59402344 88.14777344 -71.43804687 88.85804688 -71.27734375 89.58984375 C-69.37145341 99.88165159 -70.89233748 107.70284394 -76.75 116.4375 C-81.56952606 122.1520809 -88.27075587 125.85143067 -95.67578125 126.8203125 C-105.70096992 127.20246709 -112.71295415 124.13210014 -120.0234375 117.375 C-124.83223617 111.97870104 -126.89279896 105.69988184 -126.875 98.5625 C-126.87757813 97.53382813 -126.88015625 96.50515625 -126.8828125 95.4453125 C-126.75995061 92.662852 -126.37944236 90.14510126 -125.75 87.4375 C-126.51441406 86.85484375 -127.27882812 86.2721875 -128.06640625 85.671875 C-135.60165484 79.9108869 -143.04339677 74.04248359 -150.4375 68.1015625 C-151.28550171 67.42383789 -151.28550171 67.42383789 -152.15063477 66.73242188 C-153.6290511 65.53542596 -155.07961212 64.3042441 -156.52734375 63.0703125 C-158.63833866 61.1388168 -158.63833866 61.1388168 -161.3125 61.6875 C-162.446875 61.935 -163.58125 62.1825 -164.75 62.4375 C-172.35068416 62.95868977 -178.71135747 62.42359077 -185.75 59.4375 C-186.91015625 60.50677734 -186.91015625 60.50677734 -188.09375 61.59765625 C-193.24121751 66.33392326 -198.40113902 71.04348715 -203.6875 75.625 C-207.21309891 78.72325359 -210.66495994 81.90213177 -214.11328125 85.0859375 C-216.34073342 87.07249484 -218.61227644 88.84254768 -221 90.625 C-221.9075 91.553125 -222.815 92.48125 -223.75 93.4375 C-223.79671248 96.72050315 -223.79671248 96.72050315 -222.75 100.4375 C-221.69068298 109.79480035 -223.49691807 116.60436456 -228.75 124.4375 C-230.85384413 126.93205804 -232.98671146 128.7132993 -235.75 130.4375 C-236.39453125 130.84742188 -237.0390625 131.25734375 -237.703125 131.6796875 C-245.03934868 135.61951133 -253.69707968 135.92728765 -261.625 133.58984375 C-268.91301992 130.31245674 -273.81693716 125.24449671 -277.41015625 118.16796875 C-280.22295189 110.33642405 -280.22391797 100.52700851 -276.75 92.875 C-273.17388937 86.87440758 -267.58354396 81.33102197 -260.921875 78.87109375 C-252.18708238 77.12727724 -243.90155886 78.06444116 -235.75 81.4375 C-234.9765625 80.72464844 -234.203125 80.01179688 -233.40625 79.27734375 C-228.23469595 74.5188478 -223.05188279 69.78436101 -217.7421875 65.1796875 C-214.53306317 62.37327681 -211.37603817 59.51015507 -208.23046875 56.6328125 C-206.63347372 55.21940903 -204.99155432 53.85445244 -203.30078125 52.5546875 C-201.23545689 50.94712264 -199.41111726 49.46035053 -197.75 47.4375 C-197.61521513 44.10695626 -197.61521513 44.10695626 -198.75 40.4375 C-199.62476443 30.18411365 -197.96006753 23.15204043 -191.5 15.125 C-186.95275579 10.20535217 -180.89723666 6.81735201 -174.1484375 6.19921875 C-163.82772758 5.94586799 -157.06824537 8.48298636 -149.4765625 15.5 C-143.7561291 21.91930988 -142.481469 29.07294335 -142.51171875 37.421875 C-142.82225044 41.35188266 -144.06112362 43.91288842 -145.75 47.4375 C-145.34629595 50.99275552 -144.67801185 51.50305889 -141.86328125 54.06640625 C-140.60464811 55.05492332 -139.3371013 56.03215967 -138.0625 57 C-136.69629155 58.05557162 -135.33041422 59.11157192 -133.96484375 60.16796875 C-133.26601074 60.70470215 -132.56717773 61.24143555 -131.84716797 61.79443359 C-129.79753928 63.40025444 -127.80312376 65.05551496 -125.81640625 66.73828125 C-124.88477661 67.51353149 -124.88477661 67.51353149 -123.93432617 68.30444336 C-122.74769268 69.29349141 -121.57155478 70.29529934 -120.4074707 71.31079102 C-118.62326514 72.84009389 -118.62326514 72.84009389 -115.75 74.4375 C-112.98520793 73.93814029 -112.98520793 73.93814029 -110.75 72.4375 C-104.49044507 69.68940271 -96.91855315 69.20986784 -90.3359375 71.1484375 C-88.47294646 71.9089844 -86.61137507 72.67300667 -84.75 73.4375 C-80.85324439 73.10943639 -78.59492919 70.90389059 -75.6875 68.4375 C-74.71425781 67.62023437 -73.74101562 66.80296875 -72.73828125 65.9609375 C-71.75214844 65.12820312 -70.76601562 64.29546875 -69.75 63.4375 C-67.96077575 61.9761711 -66.16914651 60.51778136 -64.375 59.0625 C-60.22726587 55.67429372 -56.13787508 52.22427343 -52.0625 48.75 C-47.41721597 44.79265292 -42.69010786 41.02149982 -37.75 37.4375 C-37.90855469 36.73109375 -38.06710937 36.0246875 -38.23046875 35.296875 C-39.78847375 26.72199036 -39.46383935 18.90455525 -34.75 11.4375 C-26.83196627 0.19188754 -13.38063 -5.45482129 0 0 Z " fill="#7CB343" transform="translate(302.75,105.5625)"/>
<path d="M0 0 C24.49460971 0 49.85065931 7.94971922 68 25 C68.50192871 25.46245117 69.00385742 25.92490234 69.52099609 26.40136719 C88.03454782 43.58115281 100.6614654 65.68277928 104 91 C104 95.29 104 99.58 104 104 C69.68 104 35.36 104 0 104 C0 69.68 0 35.36 0 0 Z " fill="#7CB342" transform="translate(120,248)"/>
<path d="M0 0 C1.13308594 -0.020625 2.26617187 -0.04125 3.43359375 -0.0625 C10.14203386 -0.0939581 15.25320928 -0.01422507 20.39453125 4.78515625 C23.5006546 8.84700986 24.87568261 10.86244274 24.87025452 15.93228149 C24.87162918 16.91948685 24.87300385 17.9066922 24.87442017 18.92381287 C24.86902725 20.55408165 24.86902725 20.55408165 24.86352539 22.21728516 C24.86367142 23.35874496 24.86381744 24.50020477 24.8639679 25.67625427 C24.86326906 29.46387609 24.85547798 33.25144923 24.84765625 37.0390625 C24.84579197 39.65937269 24.84436811 42.27968323 24.84336853 44.8999939 C24.84025752 51.10127161 24.83204722 57.30253174 24.82201904 63.5038017 C24.81085078 70.56296163 24.80534565 77.62212239 24.80032361 84.68128896 C24.78986442 99.20420301 24.77152179 113.72709801 24.75 128.25 C8.91 128.25 -6.93 128.25 -23.25 128.25 C-23.34034738 113.09874518 -23.41400932 97.9476121 -23.45724869 82.79615593 C-23.47786052 75.76081564 -23.5059544 68.72565479 -23.55175781 61.69042969 C-23.59593469 54.90178857 -23.61913415 48.11333406 -23.62950897 41.32455826 C-23.63690311 38.73377675 -23.65134194 36.14300551 -23.67292023 33.55230331 C-23.70193169 29.9251063 -23.70595677 26.29868098 -23.70410156 22.67138672 C-23.71848267 21.59892197 -23.73286377 20.52645721 -23.74768066 19.42149353 C-23.71410841 13.3605032 -23.30010343 9.85956658 -19.25 5.25 C-12.85237102 -0.38600648 -8.28932439 0.03721358 0 0 Z " fill="#FAC02D" transform="translate(359.25,223.75)"/>
<path d="M0 0 C9.05460147 4.68341456 14.06827195 10.89231584 17.25 20.4375 C18.18499913 29.09292053 17.0277297 36.08536255 12.25 43.4375 C7.05453329 49.51393715 0.33605282 53.83914085 -7.671875 54.78125 C-14.22092718 54.98071352 -19.72589645 53.99318029 -25.75 51.4375 C-26.91015625 52.50677734 -26.91015625 52.50677734 -28.09375 53.59765625 C-33.24121751 58.33392326 -38.40113902 63.04348715 -43.6875 67.625 C-47.21309891 70.72325359 -50.66495994 73.90213177 -54.11328125 77.0859375 C-56.34073342 79.07249484 -58.61227644 80.84254768 -61 82.625 C-61.9075 83.553125 -62.815 84.48125 -63.75 85.4375 C-63.79671248 88.72050315 -63.79671248 88.72050315 -62.75 92.4375 C-61.69068298 101.79480035 -63.49691807 108.60436456 -68.75 116.4375 C-70.85384413 118.93205804 -72.98671146 120.7132993 -75.75 122.4375 C-76.39453125 122.84742188 -77.0390625 123.25734375 -77.703125 123.6796875 C-85.03934868 127.61951133 -93.69707968 127.92728765 -101.625 125.58984375 C-108.91301992 122.31245674 -113.81693716 117.24449671 -117.41015625 110.16796875 C-120.22295189 102.33642405 -120.22391797 92.52700851 -116.75 84.875 C-113.17388937 78.87440758 -107.58354396 73.33102197 -100.921875 70.87109375 C-92.18708238 69.12727724 -83.90155886 70.06444116 -75.75 73.4375 C-74.9765625 72.72464844 -74.203125 72.01179688 -73.40625 71.27734375 C-68.23469595 66.5188478 -63.05188279 61.78436101 -57.7421875 57.1796875 C-54.53306317 54.37327681 -51.37603817 51.51015507 -48.23046875 48.6328125 C-46.63347372 47.21940903 -44.99155432 45.85445244 -43.30078125 44.5546875 C-41.23545689 42.94712264 -39.41111726 41.46035053 -37.75 39.4375 C-37.61521513 36.10695626 -37.61521513 36.10695626 -38.75 32.4375 C-39.62476443 22.18411365 -37.96006753 15.15204043 -31.5 7.125 C-23.58722008 -1.43580931 -10.9176839 -4.45076312 0 0 Z " fill="#F34336" transform="translate(142.75,113.5625)"/>
<path d="M0 0 C1.13308594 -0.020625 2.26617187 -0.04125 3.43359375 -0.0625 C10.14203386 -0.0939581 15.25320928 -0.01422507 20.39453125 4.78515625 C24.53195518 10.1956337 24.8914335 13.31961486 24.86352539 20.01416016 C24.86367142 20.92153427 24.86381744 21.82890839 24.8639679 22.76377869 C24.86326951 25.77223068 24.85548054 28.78062128 24.84765625 31.7890625 C24.84579181 33.87128668 24.84436803 35.95351131 24.84336853 38.03573608 C24.83954541 43.52336838 24.82971686 49.01097433 24.81866455 54.49859619 C24.80665027 61.07897395 24.80204721 67.65936051 24.79621124 74.23974609 C24.78650502 84.24318241 24.767347 94.24656086 24.75 104.25 C8.91 104.25 -6.93 104.25 -23.25 104.25 C-23.41043524 81.28102185 -23.41043524 81.28102185 -23.4453125 71.484375 C-23.46921668 64.80162847 -23.49748456 58.11910132 -23.55175781 51.43652344 C-23.59524388 46.04838788 -23.61914322 40.66048761 -23.62950897 35.27219009 C-23.63689533 33.21728944 -23.65131919 31.16240155 -23.67292023 29.10760117 C-23.70199056 26.22753906 -23.70595444 23.34844712 -23.70410156 20.46826172 C-23.71848267 19.62021469 -23.73286377 18.77216766 -23.74768066 17.89842224 C-23.71035107 12.53003703 -22.7988869 9.51792419 -19.25 5.25 C-12.85237102 -0.38600648 -8.28932439 0.03721358 0 0 Z " fill="#F44336" transform="translate(303.25,247.75)"/>
<path d="M0 0 C1.13308594 -0.020625 2.26617187 -0.04125 3.43359375 -0.0625 C10.14203386 -0.0939581 15.25320928 -0.01422507 20.39453125 4.78515625 C24.10364253 9.63553254 24.8746104 11.71427981 24.86352539 17.81103516 C24.86367142 18.48432358 24.86381744 19.157612 24.8639679 19.8513031 C24.86327027 22.08058881 24.85548489 24.30979135 24.84765625 26.5390625 C24.84579154 28.08320063 24.84436789 29.62733934 24.84336853 31.17147827 C24.83954754 35.23870472 24.82972082 39.30589555 24.81866455 43.37310791 C24.80664451 48.25145736 24.80204619 53.1298187 24.79621124 58.00817871 C24.78650885 65.42214393 24.76734938 72.83603096 24.75 80.25 C8.91 80.25 -6.93 80.25 -23.25 80.25 C-23.41043524 63.27060405 -23.41043524 63.27060405 -23.4453125 56.015625 C-23.46919541 51.07111373 -23.49740486 46.12689963 -23.55175781 41.18261719 C-23.59531833 37.19498571 -23.61915855 33.20767304 -23.62950897 29.21982193 C-23.63688213 27.7007966 -23.65128042 26.1817881 -23.67292023 24.66289902 C-23.70209175 22.52993239 -23.70595054 20.39827173 -23.70410156 18.26513672 C-23.71298401 17.0526828 -23.72186646 15.84022888 -23.73101807 14.59103394 C-22.98412778 9.40331653 -20.48952872 6.34196578 -16.625 2.9375 C-11.40567624 -0.77096688 -6.23940415 0.02801079 0 0 Z " fill="#7CB342" transform="translate(415.25,271.75)"/>
<path d="M0 0 C9.05460147 4.68341456 14.06827195 10.89231584 17.25 20.4375 C18.18499913 29.09292053 17.0277297 36.08536255 12.25 43.4375 C7.03310857 49.53899476 0.34011865 53.77741777 -7.671875 54.81640625 C-17.9410015 55.22039473 -24.52600455 52.00654938 -32.0234375 45.21875 C-37.47967819 39.58968721 -38.84172087 34.2403412 -39.125 26.5625 C-38.93793707 17.7375313 -35.61720066 11.57938519 -29.6875 5.1640625 C-21.73572147 -1.9219982 -9.89705325 -4.03468721 0 0 Z " fill="#FAC02E" transform="translate(142.75,113.5625)"/>
<path d="M0 0 C9.05460147 4.68341456 14.06827195 10.89231584 17.25 20.4375 C18.40137976 29.75055907 16.46148683 36.66638911 11.25 44.4375 C6.43047394 50.1520809 -0.27075587 53.85143067 -7.67578125 54.8203125 C-17.70096992 55.20246709 -24.71295415 52.13210014 -32.0234375 45.375 C-37.66505459 39.04413557 -39.12299001 31.83317072 -39.0234375 23.5703125 C-38.31000178 15.3963775 -33.78559771 8.81599634 -27.75 3.4375 C-19.40695933 -1.86891925 -9.40716795 -3.83497787 0 0 Z " fill="#1B77D2" transform="translate(302.75,105.5625)"/>
<path d="M0 0 C0.7437236 -0.00554901 1.4874472 -0.01109802 2.25370789 -0.01681519 C4.70300491 -0.02859027 7.15044281 -0.00436063 9.59960938 0.02148438 C11.30684322 0.02319615 13.01407969 0.02312912 14.72131348 0.0213623 C18.29574806 0.02301432 21.86955455 0.04168994 25.44384766 0.07324219 C30.02049387 0.11291968 34.59631776 0.11728675 39.17310333 0.10977936 C42.6973623 0.10670656 46.22143716 0.11884115 49.74565125 0.13591003 C51.43290553 0.14293026 53.12018067 0.14606575 54.80744934 0.1452179 C57.16758777 0.14702014 59.52674969 0.16843711 61.88671875 0.1953125 C62.58089401 0.1923819 63.27506927 0.18945129 63.99028015 0.18643188 C68.29005316 0.26179669 71.01585249 0.99361097 74.44335938 3.61523438 C75.84793674 6.42438911 75.69231095 8.50333972 75.44335938 11.61523438 C73.66351533 14.75115008 72.92027731 15.45626173 69.44335938 16.61523438 C66.99135519 16.73133432 64.56661451 16.7932074 62.11376953 16.80810547 C61.37033798 16.81628296 60.62690643 16.82446045 59.86094666 16.83288574 C57.40144654 16.85769286 54.94200387 16.87424193 52.48242188 16.88867188 C51.64190655 16.89399555 50.80139122 16.89931923 49.93540573 16.90480423 C45.48819644 16.93151295 41.04101502 16.9508968 36.59375 16.96533203 C32.91348481 16.97868314 29.23377253 17.00655985 25.55371094 17.04736328 C21.10870856 17.09664655 16.66420849 17.12144728 12.21894455 17.12855911 C10.52604055 17.13527539 8.83314793 17.15050737 7.14039993 17.17444992 C4.77025092 17.20606647 2.40204275 17.20614481 0.03173828 17.19873047 C-1.01423775 17.22333847 -1.01423775 17.22333847 -2.0813446 17.2484436 C-5.90405448 17.19955402 -7.46824976 16.68597115 -10.49185181 14.26626587 C-12.55664062 11.61523438 -12.55664062 11.61523438 -13.18164062 8.61523438 C-11.69131941 1.46169254 -6.60431081 -0.12618512 0 0 Z " fill="#222222" transform="translate(380.556640625,167.384765625)"/>
<path d="M0 0 C0.7437236 -0.00554901 1.4874472 -0.01109802 2.25370789 -0.01681519 C4.70300491 -0.02859027 7.15044281 -0.00436063 9.59960938 0.02148438 C11.30684322 0.02319615 13.01407969 0.02312912 14.72131348 0.0213623 C18.29574806 0.02301432 21.86955455 0.04168994 25.44384766 0.07324219 C30.02049387 0.11291968 34.59631776 0.11728675 39.17310333 0.10977936 C42.6973623 0.10670656 46.22143716 0.11884115 49.74565125 0.13591003 C51.43290553 0.14293026 53.12018067 0.14606575 54.80744934 0.1452179 C57.16758777 0.14702014 59.52674969 0.16843711 61.88671875 0.1953125 C62.58089401 0.1923819 63.27506927 0.18945129 63.99028015 0.18643188 C68.29005316 0.26179669 71.01585249 0.99361097 74.44335938 3.61523438 C75.84793674 6.42438911 75.69231095 8.50333972 75.44335938 11.61523438 C73.66351533 14.75115008 72.92027731 15.45626173 69.44335938 16.61523438 C66.99135519 16.73133432 64.56661451 16.7932074 62.11376953 16.80810547 C61.37033798 16.81628296 60.62690643 16.82446045 59.86094666 16.83288574 C57.40144654 16.85769286 54.94200387 16.87424193 52.48242188 16.88867188 C51.64190655 16.89399555 50.80139122 16.89931923 49.93540573 16.90480423 C45.48819644 16.93151295 41.04101502 16.9508968 36.59375 16.96533203 C32.91348481 16.97868314 29.23377253 17.00655985 25.55371094 17.04736328 C21.10870856 17.09664655 16.66420849 17.12144728 12.21894455 17.12855911 C10.52604055 17.13527539 8.83314793 17.15050737 7.14039993 17.17444992 C4.77025092 17.20606647 2.40204275 17.20614481 0.03173828 17.19873047 C-1.01423775 17.22333847 -1.01423775 17.22333847 -2.0813446 17.2484436 C-5.90405448 17.19955402 -7.46824976 16.68597115 -10.49185181 14.26626587 C-12.55664062 11.61523438 -12.55664062 11.61523438 -13.18164062 8.61523438 C-11.69131941 1.46169254 -6.60431081 -0.12618512 0 0 Z " fill="#222222" transform="translate(380.556640625,135.384765625)"/>
<path d="M0 0 C0.7437236 -0.00554901 1.4874472 -0.01109802 2.25370789 -0.01681519 C4.70300491 -0.02859027 7.15044281 -0.00436063 9.59960938 0.02148438 C11.30684322 0.02319615 13.01407969 0.02312912 14.72131348 0.0213623 C18.29574806 0.02301432 21.86955455 0.04168994 25.44384766 0.07324219 C30.02049387 0.11291968 34.59631776 0.11728675 39.17310333 0.10977936 C42.6973623 0.10670656 46.22143716 0.11884115 49.74565125 0.13591003 C51.43290553 0.14293026 53.12018067 0.14606575 54.80744934 0.1452179 C57.16758777 0.14702014 59.52674969 0.16843711 61.88671875 0.1953125 C62.58089401 0.1923819 63.27506927 0.18945129 63.99028015 0.18643188 C68.29005316 0.26179669 71.01585249 0.99361097 74.44335938 3.61523438 C75.84793674 6.42438911 75.69231095 8.50333972 75.44335938 11.61523438 C73.66351533 14.75115008 72.92027731 15.45626173 69.44335938 16.61523438 C66.99135519 16.73133432 64.56661451 16.7932074 62.11376953 16.80810547 C61.37033798 16.81628296 60.62690643 16.82446045 59.86094666 16.83288574 C57.40144654 16.85769286 54.94200387 16.87424193 52.48242188 16.88867188 C51.64190655 16.89399555 50.80139122 16.89931923 49.93540573 16.90480423 C45.48819644 16.93151295 41.04101502 16.9508968 36.59375 16.96533203 C32.91348481 16.97868314 29.23377253 17.00655985 25.55371094 17.04736328 C21.10870856 17.09664655 16.66420849 17.12144728 12.21894455 17.12855911 C10.52604055 17.13527539 8.83314793 17.15050737 7.14039993 17.17444992 C4.77025092 17.20606647 2.40204275 17.20614481 0.03173828 17.19873047 C-1.01423775 17.22333847 -1.01423775 17.22333847 -2.0813446 17.2484436 C-5.90405448 17.19955402 -7.46824976 16.68597115 -10.49185181 14.26626587 C-12.55664062 11.61523438 -12.55664062 11.61523438 -13.18164062 8.61523438 C-11.69131941 1.46169254 -6.60431081 -0.12618512 0 0 Z " fill="#222222" transform="translate(380.556640625,103.384765625)"/>
<path d="M0 0 C0.5775 1.0725 1.155 2.145 1.75 3.25 C3.48375824 6.3026529 5.3634908 8.64597393 8 11 C6.44742085 15.08025373 3.5368607 17.37737059 0.25 20.0625 C-0.32564697 20.54146729 -0.90129395 21.02043457 -1.49438477 21.51391602 C-6.14732479 25.36191439 -10.89590662 29.08556277 -15.67211914 32.77880859 C-20.77829107 36.75288798 -25.66213671 40.96372023 -30.47045898 45.29272461 C-34.67557026 49 -34.67557026 49 -38 49 C-39.5 47.390625 -39.5 47.390625 -41 45.25 C-41.495 44.55390625 -41.99 43.8578125 -42.5 43.140625 C-43.2425 42.08101562 -43.2425 42.08101562 -44 41 C-44.99556974 39.66335544 -45.99426222 38.32901064 -47 37 C-39.94646442 30.90184244 -32.88730125 24.84352108 -25.56640625 19.06640625 C-22.45276664 16.55938136 -19.41535939 13.96996196 -16.375 11.375 C-3.00479616 0 -3.00479616 0 0 0 Z " fill="#242424" transform="translate(267,143)"/>
<path d="M0 0 C3.18419421 1.37154686 4.97112596 2.86169983 7.125 5.5625 C9.20903634 8.21025666 9.20903634 8.21025666 12 10 C10.48947977 13.67670584 8.3511385 15.71874462 5.375 18.3125 C4.02341797 19.49972656 4.02341797 19.49972656 2.64453125 20.7109375 C1.77183594 21.46632812 0.89914063 22.22171875 0 23 C-1.3129129 24.1453602 -2.6254487 25.2911529 -3.9375 26.4375 C-4.57429688 26.99179688 -5.21109375 27.54609375 -5.8671875 28.1171875 C-8.45815169 30.40444893 -11.0099243 32.73249221 -13.5625 35.0625 C-17.64613518 38.78782178 -21.77696174 42.43387881 -26 46 C-29.18419421 44.62845314 -30.97112596 43.13830017 -33.125 40.4375 C-35.20903634 37.78974334 -35.20903634 37.78974334 -38 36 C-36.48947977 32.32329416 -34.3511385 30.28125538 -31.375 27.6875 C-30.47523437 26.89730469 -29.57546875 26.10710937 -28.6484375 25.29296875 C-27.77445313 24.53628906 -26.90046875 23.77960938 -26 23 C-24.66635729 21.833687 -23.33299624 20.66705181 -22 19.5 C-21.360625 18.943125 -20.72125 18.38625 -20.0625 17.8125 C-16.83940606 14.98008411 -13.66191281 12.09736094 -10.4765625 9.22265625 C-7.0136219 6.11474899 -3.51265696 3.05149808 0 0 Z " fill="#242424" transform="translate(105,153)"/>
<path d="M0 0 C2.82745759 1.32760441 5.2466298 2.82204666 7.72265625 4.72265625 C8.77078491 5.52473511 8.77078491 5.52473511 9.84008789 6.34301758 C10.57348389 6.91044678 11.30687988 7.47787598 12.0625 8.0625 C12.8145874 8.64088623 13.5666748 9.21927246 14.34155273 9.81518555 C20.32139196 14.43193087 26.20323506 19.15475587 32 24 C30.50923566 27.2826932 28.61379679 29.93077441 26.375 32.75 C25.74335938 33.54921875 25.11171875 34.3484375 24.4609375 35.171875 C23.97882813 35.77515625 23.49671875 36.3784375 23 37 C18.15306129 34.38824105 14.00388197 31.53120876 9.875 27.875 C4.78198707 23.45190319 -0.43887914 19.27347656 -5.86181641 15.26123047 C-8.4823332 13.29522619 -10.15719746 11.7642038 -12 9 C-11.20335937 8.52820313 -11.20335937 8.52820313 -10.390625 8.046875 C-6.48458848 5.68044412 -3.06395074 3.44694458 0 0 Z " fill="#242424" transform="translate(155,156)"/>
<path d="M0 0 C4.0743356 0.84881992 5.54405875 2.30225596 8 5.625 C8.625 8.625 8.625 8.625 8 11.625 C5.54405875 14.94774404 4.0743356 16.40118008 0 17.25 C-4.0743356 16.40118008 -5.54405875 14.94774404 -8 11.625 C-8.625 8.625 -8.625 8.625 -8 5.625 C-5.54405875 2.30225596 -4.0743356 0.84881992 0 0 Z " fill="#2A2A2A" transform="translate(352,167.375)"/>
<path d="M0 0 C4.0743356 0.84881992 5.54405875 2.30225596 8 5.625 C8.625 8.625 8.625 8.625 8 11.625 C5.54405875 14.94774404 4.0743356 16.40118008 0 17.25 C-4.0743356 16.40118008 -5.54405875 14.94774404 -8 11.625 C-8.625 8.625 -8.625 8.625 -8 5.625 C-5.54405875 2.30225596 -4.0743356 0.84881992 0 0 Z " fill="#2A2A2A" transform="translate(352,135.375)"/>
<path d="M0 0 C4.0743356 0.84881992 5.54405875 2.30225596 8 5.625 C8.625 8.625 8.625 8.625 8 11.625 C5.54405875 14.94774404 4.0743356 16.40118008 0 17.25 C-4.0743356 16.40118008 -5.54405875 14.94774404 -8 11.625 C-8.625 8.625 -8.625 8.625 -8 5.625 C-5.54405875 2.30225596 -4.0743356 0.84881992 0 0 Z " fill="#2A2A2A" transform="translate(352,103.375)"/>
</svg>
